<svg xmlns="http://www.w3.org/2000/svg" width="1028" height="243" viewBox="0 0 1028 243">
<g>
<path d="M 189.00 201.26 L 169.50 238.98 L 154.36 238.99 L 139.23 239.00 L 106.72 176.59 L 108.47 172.05 C109.43,169.55 110.69,166.04 111.28,164.25 L 112.34 161.00 L 143.98 161.00 L 154.33 181.50 L 167.60 154.50 C174.90,139.65 180.90,127.16 180.93,126.75 C180.97,126.34 168.62,126.00 153.50,126.00 C131.42,126.00 126.00,125.74 126.00,124.68 C126.00,122.08 152.52,47.83 153.44,47.84 C153.96,47.86 156.15,52.96 158.31,59.18 C163.98,75.54 177.79,114.65 179.96,120.50 L 181.82 125.50 L 188.04 112.50 C209.05,68.62 226.28,34.70 230.31,29.29 C236.17,21.43 244.29,14.96 254.50,10.04 C265.74,4.62 274.11,3.00 290.95,3.00 L 305.00 3.00 L 305.00 239.05 L 286.89 238.77 L 268.77 238.50 L 265.86 231.00 C264.25,226.88 261.65,220.12 260.08,216.00 C258.51,211.88 254.43,201.30 251.01,192.50 C245.40,178.03 237.04,156.09 230.09,137.58 C228.66,133.78 227.04,130.52 226.49,130.34 C225.95,130.16 221.68,137.55 217.00,146.77 C212.32,155.99 199.73,180.51 189.00,201.26 ZM 57.77 191.75 L 39.63 239.00 L 4.00 239.00 L 4.00 2.77 L 20.75 3.23 C35.33,3.64 38.54,4.04 45.50,6.31 C58.61,10.60 70.82,19.06 78.59,29.24 C82.13,33.89 102.00,72.89 102.00,75.20 C102.00,76.31 94.07,97.20 57.77,191.75 ZM 539.00 129.00 L 539.00 161.00 L 522.00 161.00 L 522.00 73.95 L 536.24 74.22 L 550.48 74.50 L 558.97 102.69 C563.64,118.19 567.62,130.71 567.82,130.51 C568.02,130.31 571.91,117.63 576.45,102.32 L 584.72 74.50 L 599.37 74.22 L 614.02 73.95 L 613.76 117.22 L 613.50 160.50 L 604.75 160.79 L 596.00 161.08 L 596.00 129.04 C596.00,109.72 595.63,97.00 595.06,97.00 C594.10,97.00 592.69,101.34 584.51,129.50 C581.96,138.30 578.98,148.54 577.89,152.25 L 575.92 159.00 L 567.93 159.00 C560.56,159.00 559.87,158.82 559.08,156.75 C558.61,155.51 554.46,141.57 549.86,125.76 C544.67,107.93 541.03,97.01 540.25,97.01 C539.28,97.00 539.00,104.06 539.00,129.00 ZM 341.58 152.50 L 339.50 160.50 L 330.67 160.79 C322.59,161.06 321.88,160.93 322.36,159.29 C322.65,158.31 327.21,140.40 332.50,119.50 C337.79,98.60 342.56,79.81 343.10,77.75 L 344.08 74.00 L 374.92 74.00 L 375.90 77.75 C376.43,79.81 381.18,98.60 386.46,119.50 C391.73,140.40 396.29,158.29 396.59,159.25 C397.08,160.83 396.25,161.00 388.21,161.00 L 379.28 161.00 L 376.99 152.48 L 374.70 143.95 L 359.18 144.23 L 343.66 144.50 ZM 775.62 151.00 L 773.45 160.50 L 761.21 160.78 C751.96,160.99 748.85,160.75 748.50,159.78 C748.24,159.08 745.54,145.45 742.50,129.50 C739.46,113.55 736.79,99.71 736.58,98.75 C736.23,97.18 737.14,97.00 745.37,97.00 L 754.56 97.00 L 758.39 120.75 C762.22,144.50 763.30,149.02 764.42,146.00 C764.73,145.18 767.15,134.38 769.80,122.00 L 774.62 99.50 L 791.47 99.50 L 794.70 114.00 C801.41,144.06 802.21,147.19 803.03,146.35 C803.49,145.88 805.49,135.82 807.47,124.00 C809.45,112.18 811.32,101.26 811.62,99.75 C812.16,97.01 812.18,97.00 820.66,97.00 L 829.16 97.00 L 828.59 99.75 C828.28,101.26 825.75,114.88 822.96,130.00 C820.18,145.12 817.66,158.30 817.37,159.28 C816.90,160.88 815.60,161.03 804.17,160.78 L 791.50 160.50 L 787.35 141.69 C785.07,131.34 782.98,122.65 782.70,122.37 C782.42,122.09 781.20,126.28 779.99,131.68 C778.78,137.08 776.82,145.77 775.62,151.00 ZM 863.50 161.49 C855.64,163.15 854.15,163.19 848.56,161.88 C839.03,159.64 834.37,152.04 835.22,140.13 C836.09,127.99 840.83,124.58 859.10,122.95 C865.37,122.38 871.12,121.71 871.88,121.44 C873.85,120.76 872.66,112.97 870.32,111.20 C868.91,110.14 865.08,109.90 853.50,110.16 L 838.50 110.50 L 838.20 104.87 C838.18,104.49 838.16,104.13 838.14,103.79 C838.03,101.93 837.96,100.76 838.46,99.94 C839.40,98.43 842.35,98.16 850.79,96.95 C862.08,95.33 875.40,96.05 880.44,98.55 C888.62,102.61 889.94,107.00 889.98,130.10 C890.00,144.88 890.20,146.87 891.83,148.35 C892.83,149.26 894.24,150.00 894.96,150.00 C895.91,150.00 896.09,151.02 895.64,153.75 C895.30,155.81 895.02,158.51 895.01,159.75 C895.00,161.82 894.54,162.00 889.21,162.00 C885.38,162.00 882.08,161.32 879.46,159.98 C876.34,158.39 874.97,158.18 873.00,158.99 C871.63,159.55 867.35,160.68 863.50,161.49 ZM 467.00 113.09 L 467.00 161.00 L 450.00 161.00 L 450.00 71.00 L 467.00 71.00 L 467.00 85.00 C467.00,92.70 467.27,99.00 467.61,99.00 C467.94,99.00 470.98,98.28 474.36,97.40 C482.25,95.33 493.45,95.91 498.09,98.62 C500.06,99.77 502.45,102.58 503.96,105.50 C506.45,110.35 506.51,110.90 506.83,135.76 L 507.15 161.08 L 490.50 160.50 L 489.98 138.50 C489.69,126.40 489.08,115.70 488.61,114.72 C488.15,113.74 486.95,112.51 485.95,111.97 C483.57,110.70 475.48,110.74 470.75,112.05 ZM 668.59 161.62 C651.87,163.60 645.35,163.00 637.73,158.79 C628.95,153.94 625.54,144.55 626.21,127.09 C626.72,114.19 628.58,108.60 634.24,103.07 C639.85,97.58 643.37,96.50 655.50,96.52 C664.24,96.53 667.22,96.92 670.00,98.38 C679.18,103.22 683.18,111.25 683.15,124.74 C683.14,129.28 682.85,133.44 682.50,133.99 C682.12,134.61 674.41,135.00 662.44,135.00 L 643.00 135.00 L 643.00 137.75 C643.01,141.15 646.15,146.48 649.08,148.04 C650.56,148.83 656.12,149.10 666.38,148.86 L 681.49 148.50 L 681.82 153.65 C682.03,156.97 681.71,159.06 680.91,159.55 C680.23,159.97 674.69,160.91 668.59,161.62 ZM 999.66 185.48 C995.53,186.18 985.95,185.70 985.36,184.77 C985.11,184.37 985.87,180.99 987.05,177.27 C988.24,173.55 989.79,168.38 990.50,165.79 L 991.80 161.09 L 985.15 160.79 L 978.50 160.50 L 974.19 143.00 C971.82,133.38 968.39,119.09 966.57,111.25 L 963.26 97.00 L 972.06 97.00 C979.59,97.00 980.94,97.25 981.37,98.75 C981.64,99.71 984.17,110.62 986.98,123.00 C989.79,135.37 992.52,145.92 993.05,146.45 C995.13,148.53 995.50,147.40 1001.62,120.00 C1003.52,111.47 1005.53,102.81 1006.08,100.75 L 1007.08 97.00 L 1015.61 97.00 C1023.27,97.00 1024.08,97.18 1023.60,98.75 C1023.30,99.71 1022.17,104.32 1021.09,109.00 C1020.00,113.68 1015.99,130.32 1012.17,146.00 C1008.36,161.68 1004.69,176.85 1004.02,179.72 C1002.93,184.46 1002.52,184.99 999.66,185.48 ZM 729.74 160.91 C726.08,162.30 714.00,163.03 710.28,162.08 C705.64,160.90 702.30,158.46 700.27,154.74 C698.78,152.01 698.45,148.33 698.18,131.25 L 697.85 111.00 L 690.00 111.00 L 690.00 97.12 L 697.50 96.50 L 697.79 88.25 L 698.08 80.00 L 715.00 80.00 L 715.00 97.00 L 731.00 97.00 L 731.00 111.00 L 715.00 111.00 L 715.00 127.50 C715.00,147.43 715.28,148.00 725.00,148.00 L 731.00 148.00 L 731.01 151.75 C731.02,153.81 731.30,156.50 731.63,157.73 C732.09,159.48 731.68,160.17 729.74,160.91 ZM 954.00 71.00 L 954.00 161.00 L 937.00 161.00 L 937.00 71.00 ZM 922.00 71.00 L 922.00 161.00 L 914.17 161.00 C909.86,161.00 906.03,160.70 905.67,160.33 C905.30,159.97 905.00,139.72 905.00,115.33 L 905.00 71.00 ZM 422.00 118.89 L 422.00 161.00 L 405.00 161.00 L 405.00 97.00 L 422.00 97.00 L 422.00 99.83 C422.00,101.39 422.26,102.93 422.59,103.26 C422.91,103.58 425.27,102.61 427.84,101.10 C432.70,98.24 438.33,96.00 440.65,96.00 C441.67,96.00 442.00,97.93 442.00,103.87 L 442.00 111.74 L 437.25 113.03 C434.64,113.75 430.14,115.35 427.25,116.61 ZM 347.22 127.25 C346.81,128.85 347.87,129.00 359.45,129.00 C371.07,129.00 372.09,128.85 371.59,127.25 C371.29,126.29 369.07,117.27 366.65,107.21 C364.23,97.15 362.03,88.70 361.76,88.43 C361.50,88.16 360.20,88.35 358.89,88.85 C356.76,89.66 356.02,91.68 352.09,107.63 C349.66,117.46 347.47,126.29 347.22,127.25 ZM 854.17 147.69 C856.76,150.44 860.46,150.65 867.82,148.46 L 873.00 146.92 L 873.00 132.25 L 868.25 132.66 C856.92,133.66 855.02,134.13 853.52,136.28 C851.28,139.47 851.60,144.95 854.17,147.69 ZM 643.00 121.00 L 643.00 124.06 L 654.75 123.78 L 666.50 123.50 L 666.15 119.51 C665.74,114.78 663.70,110.48 661.46,109.62 C658.83,108.61 650.04,108.91 647.85,110.08 C645.41,111.39 643.00,116.81 643.00,121.00 Z" fill="rgb(1,1,1)"/>
<path d="M 0.00 121.50 L 0.00 0.00 L 514.00 0.00 L 1028.00 0.00 L 1028.00 121.50 L 1028.00 243.00 L 514.00 243.00 L 0.00 243.00 L 0.00 121.50 ZM 57.77 191.75 C94.07,97.20 102.00,76.31 102.00,75.20 C102.00,72.89 82.13,33.89 78.59,29.24 C70.82,19.06 58.61,10.60 45.50,6.31 C38.54,4.04 35.33,3.64 20.75,3.23 L 4.00 2.77 L 4.00 120.88 L 4.00 239.00 L 21.81 239.00 L 39.63 239.00 L 57.77 191.75 ZM 189.00 201.26 C199.73,180.51 212.32,155.99 217.00,146.77 C221.68,137.55 225.95,130.16 226.49,130.34 C227.04,130.52 228.66,133.78 230.09,137.58 C237.04,156.09 245.40,178.03 251.01,192.50 C254.43,201.30 258.51,211.88 260.08,216.00 C261.65,220.12 264.25,226.88 265.86,231.00 L 268.77 238.50 L 286.89 238.77 L 305.00 239.05 L 305.00 121.02 L 305.00 3.00 L 290.95 3.00 C274.11,3.00 265.74,4.62 254.50,10.04 C244.29,14.96 236.17,21.43 230.31,29.29 C226.28,34.70 209.05,68.62 188.04,112.50 L 181.82 125.50 L 179.96 120.50 C177.79,114.65 163.98,75.54 158.31,59.18 C156.15,52.96 153.96,47.86 153.44,47.84 C152.52,47.83 126.00,122.08 126.00,124.68 C126.00,125.74 131.42,126.00 153.50,126.00 C168.62,126.00 180.97,126.34 180.93,126.75 C180.90,127.16 174.90,139.65 167.60,154.50 L 154.33 181.50 L 149.16 171.25 L 143.98 161.00 L 128.16 161.00 L 112.34 161.00 L 111.28 164.25 C110.69,166.04 109.43,169.55 108.47,172.05 L 106.72 176.59 L 122.97 207.80 L 139.23 239.00 L 154.36 238.99 L 169.50 238.98 L 189.00 201.26 ZM 999.66 185.48 C1002.52,184.99 1002.93,184.46 1004.02,179.72 C1004.69,176.85 1008.36,161.68 1012.17,146.00 C1015.99,130.32 1020.00,113.68 1021.09,109.00 C1022.17,104.32 1023.30,99.71 1023.60,98.75 C1024.08,97.18 1023.27,97.00 1015.61,97.00 L 1007.08 97.00 L 1006.08 100.75 C1005.53,102.81 1003.52,111.47 1001.62,120.00 C995.50,147.40 995.13,148.53 993.05,146.45 C992.52,145.92 989.79,135.37 986.98,123.00 C984.17,110.62 981.64,99.71 981.37,98.75 C980.94,97.25 979.59,97.00 972.06,97.00 L 963.26 97.00 L 966.57 111.25 C968.39,119.09 971.82,133.38 974.19,143.00 L 978.50 160.50 L 985.15 160.79 L 991.80 161.09 L 990.50 165.79 C989.79,168.38 988.24,173.55 987.05,177.27 C985.87,180.99 985.11,184.37 985.36,184.77 C985.95,185.70 995.53,186.18 999.66,185.48 ZM 668.59 161.62 C674.69,160.91 680.23,159.97 680.91,159.55 C681.71,159.06 682.03,156.97 681.82,153.65 L 681.49 148.50 L 666.38 148.86 C656.12,149.10 650.56,148.83 649.08,148.04 C646.15,146.48 643.01,141.15 643.00,137.75 L 643.00 135.00 L 662.44 135.00 C674.41,135.00 682.12,134.61 682.50,133.99 C682.85,133.44 683.14,129.28 683.15,124.74 C683.18,111.25 679.18,103.22 670.00,98.38 C667.22,96.92 664.24,96.53 655.50,96.52 C643.37,96.50 639.85,97.58 634.24,103.07 C628.58,108.60 626.72,114.19 626.21,127.09 C625.54,144.55 628.95,153.94 637.73,158.79 C645.35,163.00 651.87,163.60 668.59,161.62 ZM 729.74 160.91 C731.68,160.17 732.09,159.48 731.63,157.73 C731.30,156.50 731.02,153.81 731.01,151.75 L 731.00 148.00 L 725.00 148.00 C715.28,148.00 715.00,147.43 715.00,127.50 L 715.00 111.00 L 723.00 111.00 L 731.00 111.00 L 731.00 104.00 L 731.00 97.00 L 723.00 97.00 L 715.00 97.00 L 715.00 88.50 L 715.00 80.00 L 706.54 80.00 L 698.08 80.00 L 697.79 88.25 L 697.50 96.50 L 693.75 96.81 L 690.00 97.12 L 690.00 104.06 L 690.00 111.00 L 693.93 111.00 L 697.85 111.00 L 698.18 131.25 C698.45,148.33 698.78,152.01 700.27,154.74 C702.30,158.46 705.64,160.90 710.28,162.08 C714.00,163.03 726.08,162.30 729.74,160.91 ZM 863.50 161.49 C867.35,160.68 871.63,159.55 873.00,158.99 C874.97,158.18 876.34,158.39 879.46,159.98 C882.08,161.32 885.38,162.00 889.21,162.00 C894.54,162.00 895.00,161.82 895.01,159.75 C895.02,158.51 895.30,155.81 895.64,153.75 C896.09,151.02 895.91,150.00 894.96,150.00 C894.24,150.00 892.83,149.26 891.83,148.35 C890.20,146.87 890.00,144.88 889.98,130.10 C889.94,107.00 888.62,102.61 880.44,98.55 C875.40,96.05 862.08,95.33 850.79,96.95 C837.02,98.92 837.86,98.39 838.20,104.87 L 838.50 110.50 L 853.50 110.16 C865.08,109.90 868.91,110.14 870.32,111.20 C872.66,112.97 873.85,120.76 871.88,121.44 C871.12,121.71 865.37,122.38 859.10,122.95 C840.83,124.58 836.09,127.99 835.22,140.13 C834.37,152.04 839.03,159.64 848.56,161.88 C854.15,163.19 855.64,163.15 863.50,161.49 ZM 341.58 152.50 L 343.66 144.50 L 359.18 144.23 L 374.70 143.95 L 376.99 152.48 L 379.28 161.00 L 388.21 161.00 C396.25,161.00 397.08,160.83 396.59,159.25 C396.29,158.29 391.73,140.40 386.46,119.50 C381.18,98.60 376.43,79.81 375.90,77.75 L 374.92 74.00 L 359.50 74.00 L 344.08 74.00 L 343.10 77.75 C342.56,79.81 337.79,98.60 332.50,119.50 C327.21,140.40 322.65,158.31 322.36,159.29 C321.88,160.93 322.59,161.06 330.67,160.79 L 339.50 160.50 L 341.58 152.50 ZM 422.00 139.94 L 422.00 118.89 L 427.25 116.61 C430.14,115.35 434.64,113.75 437.25,113.03 L 442.00 111.74 L 442.00 103.87 C442.00,97.93 441.67,96.00 440.65,96.00 C438.33,96.00 432.70,98.24 427.84,101.10 C425.27,102.61 422.91,103.58 422.59,103.26 C422.26,102.93 422.00,101.39 422.00,99.83 L 422.00 97.00 L 413.50 97.00 L 405.00 97.00 L 405.00 129.00 L 405.00 161.00 L 413.50 161.00 L 422.00 161.00 L 422.00 139.94 ZM 467.00 137.05 L 467.00 113.09 L 470.75 112.05 C475.48,110.74 483.57,110.70 485.95,111.97 C486.95,112.51 488.15,113.74 488.61,114.72 C489.08,115.70 489.69,126.40 489.98,138.50 L 490.50 160.50 L 498.83 160.79 L 507.15 161.08 L 506.83 135.76 C506.51,110.90 506.45,110.35 503.96,105.50 C502.45,102.58 500.06,99.77 498.09,98.62 C493.45,95.91 482.25,95.33 474.36,97.40 C470.98,98.28 467.94,99.00 467.61,99.00 C467.27,99.00 467.00,92.70 467.00,85.00 L 467.00 71.00 L 458.50 71.00 L 450.00 71.00 L 450.00 116.00 L 450.00 161.00 L 458.50 161.00 L 467.00 161.00 L 467.00 137.05 ZM 539.00 129.00 C539.00,104.06 539.28,97.00 540.25,97.01 C541.03,97.01 544.67,107.93 549.86,125.76 C554.46,141.57 558.61,155.51 559.08,156.75 C559.87,158.82 560.56,159.00 567.93,159.00 L 575.92 159.00 L 577.89 152.25 C578.98,148.54 581.96,138.30 584.51,129.50 C592.69,101.34 594.10,97.00 595.06,97.00 C595.63,97.00 596.00,109.72 596.00,129.04 L 596.00 161.08 L 604.75 160.79 L 613.50 160.50 L 613.76 117.22 L 614.02 73.95 L 599.37 74.22 L 584.72 74.50 L 576.45 102.32 C571.91,117.63 568.02,130.31 567.82,130.51 C567.62,130.71 563.64,118.19 558.97,102.69 L 550.48 74.50 L 536.24 74.22 L 522.00 73.95 L 522.00 117.47 L 522.00 161.00 L 530.50 161.00 L 539.00 161.00 L 539.00 129.00 ZM 775.62 151.00 C776.82,145.77 778.78,137.08 779.99,131.68 C781.20,126.28 782.42,122.09 782.70,122.37 C782.98,122.65 785.07,131.34 787.35,141.69 L 791.50 160.50 L 804.17 160.78 C815.60,161.03 816.90,160.88 817.37,159.28 C817.66,158.30 820.18,145.12 822.96,130.00 C825.75,114.88 828.28,101.26 828.59,99.75 L 829.16 97.00 L 820.66 97.00 C812.18,97.00 812.16,97.01 811.62,99.75 C811.32,101.26 809.45,112.18 807.47,124.00 C805.49,135.82 803.49,145.88 803.03,146.35 C802.21,147.19 801.41,144.06 794.70,114.00 L 791.47 99.50 L 783.04 99.50 L 774.62 99.50 L 769.80 122.00 C767.15,134.38 764.73,145.18 764.42,146.00 C763.30,149.02 762.22,144.50 758.39,120.75 L 754.56 97.00 L 745.37 97.00 C737.14,97.00 736.23,97.18 736.58,98.75 C736.79,99.71 739.46,113.55 742.50,129.50 C745.54,145.45 748.24,159.08 748.50,159.78 C748.85,160.75 751.96,160.99 761.21,160.78 L 773.45 160.50 L 775.62 151.00 ZM 922.00 116.00 L 922.00 71.00 L 913.50 71.00 L 905.00 71.00 L 905.00 115.33 C905.00,139.72 905.30,159.97 905.67,160.33 C906.03,160.70 909.86,161.00 914.17,161.00 L 922.00 161.00 L 922.00 116.00 ZM 954.00 116.00 L 954.00 71.00 L 945.50 71.00 L 937.00 71.00 L 937.00 116.00 L 937.00 161.00 L 945.50 161.00 L 954.00 161.00 L 954.00 116.00 ZM 643.00 121.00 C643.00,116.81 645.41,111.39 647.85,110.08 C650.04,108.91 658.83,108.61 661.46,109.62 C663.70,110.48 665.74,114.78 666.15,119.51 L 666.50 123.50 L 654.75 123.78 L 643.00 124.06 L 643.00 121.00 ZM 854.17 147.69 C851.60,144.95 851.28,139.47 853.52,136.28 C855.02,134.13 856.92,133.66 868.25,132.66 L 873.00 132.25 L 873.00 139.58 L 873.00 146.92 L 867.82 148.46 C860.46,150.65 856.76,150.44 854.17,147.69 ZM 347.22 127.25 C347.47,126.29 349.66,117.46 352.09,107.63 C356.02,91.68 356.76,89.66 358.89,88.85 C360.20,88.35 361.50,88.16 361.76,88.43 C362.03,88.70 364.23,97.15 366.65,107.21 C369.07,117.27 371.29,126.29 371.59,127.25 C372.09,128.85 371.07,129.00 359.45,129.00 C347.87,129.00 346.81,128.85 347.22,127.25 Z" fill="rgb(254,254,254)"/>
</g>
</svg>